<?xml version="1.0" encoding="UTF-8"?>
<svg width="23px" height="24px" viewBox="0 0 23 24" version="1.1" xmlns="http://www.w3.org/2000/svg" xmlns:xlink="http://www.w3.org/1999/xlink">
    <!-- Generator: Sketch 51.3 (57544) - http://www.bohemiancoding.com/sketch -->
    <title>twitch</title>
    <desc>Created with Sketch.</desc>
    <defs></defs>
    <g id="Page-1" stroke="none" stroke-width="1" fill="none" fill-rule="evenodd">
        <g id="Desktop-HD---Joined" transform="translate(-1004.000000, -385.000000)" fill="#FFFFFF" fill-rule="nonzero">
            <g id="Group" transform="translate(403.000000, 375.000000)">
                <g id="Joined">
                    <g id="twitch" transform="translate(601.107692, 10.000000)">
                        <path d="M16.4307692,20.8962462 L11.8153846,20.8962462 L8.71384615,23.9977846 L5.61230769,23.9977846 L5.61230769,20.8962462 L0,20.8962462 L0,4.46547692 L1.55076923,0.367015385 L22.5969231,0.367015385 L22.5969231,14.7670154 L16.4307692,20.8962462 Z M20.5292308,13.7331692 L20.5292308,2.43470769 L3.58153846,2.43470769 L3.58153846,17.3147077 L8.19692308,17.3147077 L8.19692308,20.3793231 L11.2615385,17.3147077 L16.9107692,17.3147077 L20.5292308,13.7331692 Z" id="Shape"></path>
                        <path d="M14.88,6.53316923 L14.88,12.6993231 L16.9476923,12.6993231 L16.9476923,6.53316923 L14.88,6.53316923 Z M9.23076923,12.6993231 L11.2984615,12.6993231 L11.2984615,6.53316923 L9.23076923,6.53316923 L9.23076923,12.6993231 Z" id="Shape"></path>
                    </g>
                </g>
            </g>
        </g>
    </g>
</svg>